<svg width="22" height="22" viewBox="0 0 22 22" fill="none" xmlns="http://www.w3.org/2000/svg">
<path fill-rule="evenodd" clip-rule="evenodd" d="M1.68922 5.62344C3.54694 2.41276 7.02048 0.25 11 0.25C16.9371 0.25 21.75 5.06294 21.75 11C21.75 16.9371 16.9371 21.75 11 21.75C5.06294 21.75 0.25 16.9371 0.25 11C0.25 10.5858 0.585786 10.25 1 10.25C1.41421 10.25 1.75 10.5858 1.75 11C1.75 16.1086 5.89136 20.25 11 20.25C16.1086 20.25 20.25 16.1086 20.25 11C20.25 5.89136 16.1086 1.75 11 1.75C7.57752 1.75 4.58816 3.60835 2.98755 6.37466C2.78011 6.73319 2.3213 6.85566 1.96277 6.64822C1.60425 6.44077 1.48178 5.98196 1.68922 5.62344Z" fill="#616161"/>
</svg>
